<svg xmlns="http://www.w3.org/2000/svg" width="389.268" height="389.268" viewBox="0 0 389.268 389.268">
  <g id="boy" transform="translate(-1488 -862)">
    <g id="Filled_outline" data-name="Filled outline" transform="translate(1488 862)">
      <path id="Path_8" data-name="Path 8" d="M257.561,131.463A19.463,19.463,0,0,0,238.1,112H43.463A19.463,19.463,0,0,0,24,131.463V267.707H257.561Z" transform="translate(-17.512 -34.146)" fill="#4db7e5"/>
      <path id="Path_9" data-name="Path 9" d="M251.707,112,96,267.707H271.171V131.463A19.463,19.463,0,0,0,251.707,112Z" transform="translate(-31.122 -34.146)" fill="#48add9"/>
      <path id="Path_10" data-name="Path 10" d="M24,304v12.976a19.463,19.463,0,0,0,19.463,19.463H238.1a19.463,19.463,0,0,0,19.463-19.463V304Z" transform="translate(-17.512 -70.439)" fill="#e0e0de"/>
      <path id="Path_11" data-name="Path 11" d="M192.878,382.927H128L140.976,344H179.9Z" transform="translate(-37.171 -78)" fill="#c7c7c5"/>
      <rect id="Rectangle_2" data-name="Rectangle 2" width="115.385" height="25.492" rx="12.746" transform="translate(65.742 304.562)" fill="#e0e0de"/>
      <ellipse id="Ellipse_9" data-name="Ellipse 9" cx="18.784" cy="19.454" rx="18.784" ry="19.454" transform="translate(299.195 71.109)" fill="#7a432a"/>
      <circle id="Ellipse_10" data-name="Ellipse 10" cx="19.454" cy="19.454" r="19.454" transform="translate(181.127 71.109)" fill="#7a432a"/>
      <path id="Path_12" data-name="Path 12" d="M397.115,271.127l-57.407-8.2V224H274.829v38.927L214.77,275.8A38.927,38.927,0,0,0,184,313.856v52.876H430.536V309.663a38.927,38.927,0,0,0-33.422-38.536Z" transform="translate(-47.756 -55.317)" fill="#fec9a3"/>
      <path id="Path_13" data-name="Path 13" d="M333.329,256.439a51.749,51.749,0,0,0,27.549-7.956V224H296v24.483a51.748,51.748,0,0,0,27.549,7.956Z" transform="translate(-68.927 -55.317)" fill="#feb784"/>
      <path id="Path_14" data-name="Path 14" d="M430.536,318.737v83.019H184V322.929a38.926,38.926,0,0,1,30.765-38.058L274.829,272c10.883,30.476,53.995,30.476,64.878,0l39.259,5.6,18.15,2.6A38.927,38.927,0,0,1,430.536,318.737Z" transform="translate(-47.756 -64.391)" fill="#f35244"/>
      <path id="Path_15" data-name="Path 15" d="M240,432H395.707v45.415H240Z" transform="translate(-58.342 -94.635)" fill="#ea4a3b"/>
      <path id="Path_16" data-name="Path 16" d="M445.2,320.043v83.02H261.59c50.248-26.981,94.032-62.778,132.043-124.152l18.15,2.6A38.927,38.927,0,0,1,445.2,320.043Z" transform="translate(-62.423 -65.697)" fill="#ea4a3b"/>
      <path id="Path_17" data-name="Path 17" d="M414.488,128H408v38.927h6.488a19.463,19.463,0,0,0,0-38.927Z" transform="translate(-90.098 -37.171)" fill="#feb784"/>
      <path id="Path_18" data-name="Path 18" d="M257.951,128h-6.488a19.463,19.463,0,0,0,0,38.927h6.488Z" transform="translate(-56.829 -37.171)" fill="#feb784"/>
      <path id="Path_19" data-name="Path 19" d="M380.78,106.391v45.415a58.39,58.39,0,0,1-56.225,58.35c-.714.024-1.444.041-2.166.041A58.394,58.394,0,0,1,264,151.81V106.391a58.394,58.394,0,0,1,50.388-57.838h.014a58.39,58.39,0,0,1,66.378,57.839Z" transform="translate(-62.878 -22.049)" fill="#fec9a3"/>
      <path id="Path_20" data-name="Path 20" d="M392.528,106.391v45.415a58.39,58.39,0,0,1-56.224,58.35,71.278,71.278,0,0,0,30.273-58.35V112.878A71.48,71.48,0,0,0,326.15,48.552a58.39,58.39,0,0,1,66.378,57.839Z" transform="translate(-74.626 -22.049)" fill="#fec093"/>
      <path id="Path_21" data-name="Path 21" d="M381.219,62.927c-.114,0-.217.032-.33.033a22.577,22.577,0,0,0-39.182-18.426,25.934,25.934,0,0,0-50.731,0A22.437,22.437,0,0,0,251.793,62.96c-.113,0-.217-.033-.33-.033a19.463,19.463,0,0,0,0,38.927l6.488,19.463,9.578-28.734A19.35,19.35,0,0,0,296.878,75.9l1.329.442a19.382,19.382,0,0,0,36.268,0L335.8,75.9a19.35,19.35,0,0,0,29.348,16.68l9.578,28.734,6.488-19.463a19.463,19.463,0,1,0,0-38.927Z" transform="translate(-56.829 -17.512)" fill="#7a432a"/>
      <path id="Path_22" data-name="Path 22" d="M209.951,468.341h19.463L352.683,442.39h25.951L398.1,429.415h32.439V384H398.1l-45.415,19.463L184,416.439V442.39A25.951,25.951,0,0,0,209.951,468.341Z" transform="translate(-47.756 -85.561)" fill="#feb784"/>
      <path id="Path_23" data-name="Path 23" d="M404.585,468.341H385.122L261.854,442.39H235.9l-19.463-12.976H184V384h32.439l45.415,19.463,168.683,12.976V442.39A25.951,25.951,0,0,1,404.585,468.341Z" transform="translate(-47.756 -85.561)" fill="#fec9a3"/>
      <ellipse id="Ellipse_11" data-name="Ellipse 11" cx="19.454" cy="20.125" rx="19.454" ry="20.125" transform="translate(207.961 89.893)" fill="#e0e0de"/>
      <ellipse id="Ellipse_12" data-name="Ellipse 12" cx="19.454" cy="20.125" rx="19.454" ry="20.125" transform="translate(272.361 89.893)" fill="#e0e0de"/>
      <path id="Path_24" data-name="Path 24" d="M0,0H69.876V12.976H0Z" transform="translate(97.666 192.213) rotate(-68.209)"/>
      <path id="Path_25" data-name="Path 25" d="M116.546,185.6,90.6,205.063a6.488,6.488,0,0,0,0,10.38l25.951,19.463,7.785-10.38L105.3,210.254l19.031-14.273Z" transform="translate(-29.61 -48.059)"/>
      <path id="Path_26" data-name="Path 26" d="M194.985,234.907l25.951-19.463a6.488,6.488,0,0,0,0-10.38L194.985,185.6l-7.785,10.38,19.031,14.273L187.2,224.527Z" transform="translate(-48.361 -48.059)"/>
      <path id="Path_27" data-name="Path 27" d="M48,136H60.976v12.976H48Z" transform="translate(-22.049 -38.683)"/>
      <path id="Path_28" data-name="Path 28" d="M80,136H92.976v12.976H80Z" transform="translate(-28.098 -38.683)"/>
      <path id="Path_29" data-name="Path 29" d="M112,136h12.976v12.976H112Z" transform="translate(-34.146 -38.683)"/>
      <path id="Path_30" data-name="Path 30" d="M366.282,225.361l-51.843-7.381v-20.35a64.7,64.7,0,0,0,25.627-45.387h.324a25.945,25.945,0,0,0,12.548-48.658,25.947,25.947,0,0,0-6.163-47.863,29.235,29.235,0,0,0-29.092-26.747,28.91,28.91,0,0,0-13.908,3.592,32.39,32.39,0,0,0-56.525,0,28.91,28.91,0,0,0-13.908-3.592,29.235,29.235,0,0,0-29.094,26.746A25.966,25.966,0,0,0,185.5,87.366H41.951A25.98,25.98,0,0,0,16,113.317V262.536a25.98,25.98,0,0,0,25.951,25.951H110.8l-8.651,25.951h-8.3a19.463,19.463,0,1,0,0,38.927h51.9v19.463A32.476,32.476,0,0,0,178.2,405.268s20.362-.047,20.8-.14L275.424,389l76.605,16.127c.44.092,20.8.139,20.8.139a32.475,32.475,0,0,0,32.439-32.439V270.322a45.727,45.727,0,0,0-38.986-44.961ZM249.561,205.213a64.836,64.836,0,0,0,51.9,0v17.206c-5.1,12.921-16.661,17.562-25.951,17.562s-20.853-4.64-25.951-17.562Zm77.854-59.457a51.9,51.9,0,0,1-103.8,0V143.43A25.933,25.933,0,0,0,268.2,132.78h14.619a25.933,25.933,0,0,0,44.593,10.65ZM197.658,126.293a12.991,12.991,0,0,1,12.976-12.976v25.951a12.991,12.991,0,0,1-12.976-12.976Zm110.293-25.951a26,26,0,0,0-25.13,19.463H268.2a25.928,25.928,0,0,0-39.126-15.348l1.608-4.825a25.078,25.078,0,0,0,5.9.71,25.964,25.964,0,0,0,22.227-12.57,25.975,25.975,0,0,0,33.4,0,25.964,25.964,0,0,0,22.227,12.57,25.078,25.078,0,0,0,5.9-.71l1.608,4.825a25.789,25.789,0,0,0-14-4.116Zm12.976,25.951a12.976,12.976,0,1,1-12.976-12.976,12.976,12.976,0,0,1,12.976,12.976Zm-64.878,0a12.976,12.976,0,1,1-12.976-12.976,12.976,12.976,0,0,1,12.976,12.976Zm84.341,12.976V113.317a12.976,12.976,0,1,1,0,25.951ZM210.321,67.906c.162.014.348.026.552.028a6.488,6.488,0,0,0,6.511-7.422l-.041-.277a15.725,15.725,0,0,1-.221-2.065,16.238,16.238,0,0,1,16.22-16.22,16,16,0,0,1,11.987,5.417,6.488,6.488,0,0,0,11.164-3,19.446,19.446,0,0,1,38.04,0,6.488,6.488,0,0,0,11.164,3,16,16,0,0,1,11.987-5.421A16.238,16.238,0,0,1,333.9,58.171a15.722,15.722,0,0,1-.221,2.065l-.041.277a6.488,6.488,0,0,0,1.541,5.213,6.343,6.343,0,0,0,4.968,2.209c.2,0,.388-.014.551-.028a12.975,12.975,0,1,1-.31,25.948c-.634,0-6.684-.288-8.245.161l-1.666-5a6.488,6.488,0,0,0-9.471-3.525,12.744,12.744,0,0,1-6.569,1.873A12.991,12.991,0,0,1,301.463,74.39a6.488,6.488,0,0,0-8.536-6.156l-1.322.44a6.488,6.488,0,0,0-4.018,3.841,12.9,12.9,0,0,1-24.151,0,6.488,6.488,0,0,0-4.018-3.841l-1.322-.44a6.488,6.488,0,0,0-8.536,6.156,12.991,12.991,0,0,1-12.976,12.976,12.744,12.744,0,0,1-6.569-1.873,6.488,6.488,0,0,0-9.468,3.526l-1.666,5c-1.56-.449-7.611-.162-8.245-.162a12.977,12.977,0,0,1-.313-25.951ZM28.976,113.317a12.991,12.991,0,0,1,12.976-12.976H193.5a26.091,26.091,0,0,0,4.589,3.244,25.945,25.945,0,0,0,12.548,48.658h.324a64.688,64.688,0,0,0,25.627,45.39v20.73l-54.967,11.753a45.385,45.385,0,0,0-23.085,12.955H28.976Zm0,149.219v-6.488H149.754a44.912,44.912,0,0,0-4,18.49v.973H41.951a12.991,12.991,0,0,1-12.976-12.976Zm95.505,25.951h21.275v25.951H115.831ZM87.366,333.9a6.209,6.209,0,0,1,1.865-4.5c.043-.041.085-.081.127-.126a6.208,6.208,0,0,1,4.5-1.864h51.9V340.39h-51.9a6.5,6.5,0,0,1-6.488-6.488Zm109.615,58.39H178.195a19.485,19.485,0,0,1-19.463-19.463v-6.488h23.987l17.828,11.886a6.488,6.488,0,0,0,3.6,1.09h25.276l14.542,3.061Zm195.311-19.463a19.485,19.485,0,0,1-19.463,19.463H354.041L231.434,366.481a6.487,6.487,0,0,0-1.336-.139H206.11l-17.829-11.886a6.488,6.488,0,0,0-3.6-1.09H158.732V320.927h24.62l44.191,18.94a6.538,6.538,0,0,0,2.057.505l162.693,12.514Zm0-32.957-58.339-4.488,21.977-9.407,11.746-5.05h24.616Zm0-31.921H366.341a6.507,6.507,0,0,0-2.563.527l-3.925,1.683V288.488H346.878v27.234l-27.523,11.795L275.609,330.9l-43.943-3.38-27.52-11.794V288.488H191.171v21.673l-3.932-1.686a6.5,6.5,0,0,0-2.555-.524H158.732V274.539A32.694,32.694,0,0,1,184.353,242.8l54.909-11.741a40.954,40.954,0,0,0,72.674-.324l1.585.226,50.912,7.247a32.677,32.677,0,0,1,27.86,32.115Z" transform="translate(-16 -16)"/>
    </g>
    <path id="Path_48" data-name="Path 48" d="M257.135,237.626a4.149,4.149,0,1,0-7.5-3.558,10.756,10.756,0,0,1-19.437,0,4.149,4.149,0,0,0-7.5,3.558,19.054,19.054,0,0,0,34.43,0Z" transform="translate(1507.521 785.764)"/>
  </g>
</svg>
