<?xml version="1.0"?>
<svg xmlns="http://www.w3.org/2000/svg" viewBox="0 0 64 64" width="512" height="512"><path d="m35 56.0567v.9433h26v-9c-14.37109 0-26 3.55078-26 8.0567z" fill="#b6dedc"/><path d="m3 48v9h26v-.9433c0-4.50592-11.62891-8.0567-26-8.0567z" fill="#b6dedc"/><path d="m32 10c-7.732 0-14 5.87624-14 13.125a12.76633 12.76633 0 0 0 8 12.03285l.4.21715 1.6 2.625h8l1.6-2.625.4-.21715a12.76633 12.76633 0 0 0 8-12.03285c0-7.24876-6.268-13.125-14-13.125z" fill="#fcd821"/><rect fill="#344496" height="4" rx="2" width="12" x="26" y="38"/><rect fill="#344496" height="4" rx="2" width="12" x="26" y="42"/><g fill="#fcd821"><path d="m12.99988 8.1459h2.00023v6.7082h-2.00023z" transform="matrix(.44721358 -.8944272 .8944272 .44721358 -2.5469 18.87902)"/><path d="m46.46414 10.4999h6.70795v2.0002h-6.70795z" transform="matrix(.94863449 -.31637415 .31637415 .94863449 -1.07937 16.35187)"/><path d="m7 22h6v2h-6z"/><path d="m51 22h6v2h-6z"/><path d="m10.6459 35.49988h6.7082v2.00023h-6.7082z" transform="matrix(.8944272 -.44721358 .44721358 .8944272 -14.84528 10.1144)"/><path d="m48.99988 33.1459h2.00023v6.7082h-2.00023z" transform="matrix(.44721358 -.8944272 .8944272 .44721358 -5.00727 64.89806)"/></g><path d="m38.43018 36.062a13.74224 13.74224 0 0 0 8.56982-12.937c0-7.78857-6.729-14.125-15-14.125s-15 6.33643-15 14.125a13.74224 13.74224 0 0 0 8.56982 12.937l.11622.063.79412 1.303a2.966 2.966 0 0 0 -.69989 4.572 2.98694 2.98694 0 0 0 2.21973 5h8a2.98694 2.98694 0 0 0 2.21973-5 2.966 2.966 0 0 0 -.69989-4.572l.79412-1.303zm-2.43018 8.938h-8a1 1 0 0 1 0-2h8a1 1 0 0 1 0 2zm0-4h-8a1 1 0 0 1 0-2h8a1 1 0 0 1 0 2zm1.52246-6.72119-.3999.21728a1.00493 1.00493 0 0 0 -.37647.3584l-1.30761 2.14551h-.43848v-7.58594l4.707-4.707-1.414-1.41406-5 5a1.00012 1.00012 0 0 0 -.293.707v8h-2v-8a1.00012 1.00012 0 0 0 -.293-.707l-5-5-1.414 1.414 4.707 4.70706v7.58594h-.43848l-1.30761-2.14551a1.00493 1.00493 0 0 0 -.37647-.3584l-.3999-.21728a1.0663 1.0663 0 0 0 -.09863-.04639 11.77542 11.77542 0 0 1 -7.37891-11.10742c0-6.68555 5.83154-12.125 13-12.125s13 5.43945 13 12.125a11.77542 11.77542 0 0 1 -7.37891 11.10742 1.0663 1.0663 0 0 0 -.09863.04639z"/><path d="m31 2h2v5h-2z" fill="#fcd821"/><path d="m61 49v-2c-13.04639 0-26.91016 3.15381-26.99951 9h-4.001c-.08933-5.84619-13.9531-9-26.99949-9v2c14.64984 0 24.87964 3.67676 24.99463 7h-24.99463v2h58v-2h-24.99463c.11499-3.32324 10.34479-7 24.99463-7z"/><path d="m11.50007 43.98685h1.99985v19.0263h-1.99985z" transform="matrix(.05255888 -.99861783 .99861783 .05255888 -41.58304 63.17083)"/><path d="m41.98685 52.50007h19.0263v1.99985h-19.0263z" transform="matrix(.99860837 -.05273822 .05273822 .99860837 -2.74983 2.79047)"/></svg>
