<?xml version="1.0" encoding="iso-8859-1"?>
<!-- Generator: Adobe Illustrator 19.0.0, SVG Export Plug-In . SVG Version: 6.00 Build 0)  -->
<svg version="1.1" id="Capa_1" xmlns="http://www.w3.org/2000/svg" xmlns:xlink="http://www.w3.org/1999/xlink" x="0px" y="0px"
	 viewBox="0 0 330.946 330.946" style="enable-background:new 0 0 330.946 330.946;" xml:space="preserve">
<g transform="translate(1 1)">
	<g>
		<path style="fill:#FFE100;" d="M288.644,260.662c-10.47-19.788-49.091-42.422-49.091-42.422
			c-8.738-4.987-19.28-5.538-24.267,3.338c0,0-12.55,15.049-15.744,17.217c-14.58,9.875-28.079,9.494-41.716-4.137l-31.681-31.686
			L94.458,171.29c-13.631-13.631-14.012-27.135-4.137-41.716c2.168-3.194,17.217-15.744,17.217-15.744
			c8.876-4.987,8.325-15.529,3.338-24.267c0,0-22.629-38.615-42.422-49.091c-8.418-4.457-18.756-2.902-25.492,3.834L28.966,58.3
			c-44.38,44.386-22.529,94.492,21.851,138.872l40.563,40.563l40.563,40.563c44.38,44.38,94.487,66.231,138.872,21.851
			l13.995-13.995C291.546,279.418,293.101,269.08,288.644,260.662"/>
		<path style="fill:#FFE100;" d="M236,4.495c-48.749,0-88.264,34.34-88.264,76.707c0,15.611,5.379,30.126,14.597,42.24
			c-1.208,13.995-4.59,36.949-14.492,46.548c0,0,30.159-7.348,50.652-19.352c11.386,4.656,24.09,7.265,37.507,7.265
			c48.749,0,88.264-34.34,88.264-76.701C324.263,38.835,284.749,4.495,236,4.495"/>
	</g>
	<path style="fill:#FFA800;" d="M236,4.495c-2.791,0-5.55,0.144-8.275,0.364c44.86,3.63,79.989,36.403,79.989,76.343
		c0,39.813-34.908,72.526-79.575,76.321c2.598,0.204,5.202,0.381,7.861,0.381c48.749,0,88.264-34.34,88.264-76.701
		C324.263,38.835,284.749,4.495,236,4.495"/>
	<path style="fill:#E4667F;" d="M224.967,87.242c-9.141,0-16.549,7.408-16.549,16.549s7.408,16.549,16.549,16.549
		c9.141,0,16.549-7.408,16.549-16.549V87.242H224.967z"/>
	<path style="fill:#FFA800;" d="M288.644,260.238c-10.47-19.793-49.091-42.422-49.091-42.422
		c-6.592-3.762-14.211-4.987-19.694-1.555c1.065,0.458,2.118,0.965,3.144,1.555c0,0,38.621,22.629,49.091,42.422
		c4.457,8.418,2.902,18.756-3.834,25.492l-13.995,13.995c-14.47,14.47-29.547,21.862-44.838,23.765
		c20.924,2.543,41.716-4.099,61.388-23.765l13.995-13.995C291.546,278.994,293.101,268.656,288.644,260.238"/>
	<path style="fill:#FFFFFF;" d="M148.133,277.89l-40.563-40.563L67.013,196.77C22.627,152.384,0.776,102.278,45.162,57.892
		l13.995-13.99c2.058-2.063,4.479-3.58,7.061-4.645c-8.037-3.327-17.366-1.605-23.611,4.645l-13.995,13.99
		c-44.386,44.386-22.535,94.492,21.851,138.878l40.557,40.557l40.563,40.563c29.916,29.916,62.43,49.555,94.04,45.616
		C199.337,320.312,172.847,302.604,148.133,277.89"/>
	<path d="M217.862,329.946c-0.001,0-0.002,0-0.003,0c-27.896-0.001-58.11-16.07-89.802-47.762l-81.125-81.126
		C-8.181,145.946-15.737,95.237,25.08,54.415l13.995-13.996c5.137-5.137,11.967-7.966,19.233-7.966
		c4.413,0,8.809,1.093,12.715,3.161c20.933,11.079,43.636,49.538,44.592,51.17c4.047,7.09,5.315,14.373,3.601,20.562
		c-1.289,4.653-4.229,8.447-8.518,11.002c-6.738,5.635-14.611,12.624-15.844,14.33c-8.837,13.048-7.798,23.44,3.488,34.727
		l63.368,63.368c6.298,6.295,12.39,9.356,18.623,9.356c5.006-0.001,10.281-1.925,16.125-5.883c1.685-1.22,8.674-9.091,14.307-15.828
		c3.555-5.973,9.427-9.253,16.596-9.253c4.821,0,9.979,1.489,14.913,4.305c1.687,0.988,40.151,23.697,51.225,44.624
		c5.62,10.614,3.689,23.453-4.805,31.948L274.7,304.034C257.505,321.228,238.382,329.946,217.862,329.946z M58.309,43.444
		c-4.331,0-8.401,1.685-11.462,4.747L32.851,62.185C-3.393,98.434,3.959,142.543,54.702,193.287l81.125,81.125
		c29.556,29.556,57.156,44.542,82.031,44.543c17.5,0.001,34.01-7.634,49.071-22.693l13.995-13.995
		c5.061-5.061,6.211-12.71,2.864-19.034c-7.99-15.101-36.647-34.176-47.014-40.253c-3.177-1.813-6.539-2.828-9.412-2.828
		c-3.347,0-5.73,1.347-7.286,4.117l-0.247,0.44l-0.323,0.389c-3.922,4.702-13.419,15.895-16.879,18.244
		c-7.727,5.233-15.017,7.776-22.291,7.776c-9.167,0.001-18.047-4.23-26.395-12.574l-63.368-63.368
		c-14.944-14.944-16.559-31.323-4.802-48.683c2.351-3.464,13.544-12.96,18.247-16.882l0.388-0.323l0.44-0.248
		c1.992-1.118,3.228-2.632,3.78-4.625c0.9-3.249-0.043-7.783-2.523-12.128c-0.187-0.317-22.044-37.338-40.22-46.959
		C63.555,44.095,60.936,43.444,58.309,43.444z"/>
	<path d="M219.814,269.266c-0.19,0-0.381-0.01-0.575-0.03c-38.026-3.949-62.93-28.108-63.972-29.134
		c-2.162-2.13-2.187-5.609-0.056-7.771c2.128-2.159,5.603-2.186,7.765-0.063l0,0c0.229,0.225,23.324,22.498,57.398,26.036
		c3.018,0.313,5.212,3.014,4.898,6.033C224.979,267.163,222.593,269.266,219.814,269.266z"/>
	<path d="M98.441,181.001c-1.23,0-2.467-0.411-3.49-1.253c-1.267-1.044-31.089-26.008-35.071-64.356
		c-0.314-3.018,1.879-5.72,4.898-6.033c3.022-0.311,5.72,1.88,6.033,4.898c3.522,33.913,30.851,56.781,31.127,57.007
		c2.343,1.929,2.678,5.393,0.748,7.735C101.6,180.319,100.026,181.001,98.441,181.001z"/>
	<path d="M147.839,175.486c-1.967,0-3.827-1.06-4.81-2.84c-1.199-2.171-0.795-4.876,0.986-6.602
		c6.121-5.934,10.702-20.822,12.653-41.018c-9.447-13.118-14.428-28.225-14.428-43.825C142.24,35.876,184.301-1,236-1
		s93.759,36.876,93.759,82.202c0,45.323-42.06,82.197-93.759,82.197c-12.889,0-25.349-2.248-37.075-6.686
		c-20.764,11.47-48.567,18.32-49.784,18.616C148.708,175.434,148.271,175.486,147.839,175.486z M236,9.99
		c-45.639,0-82.769,31.946-82.769,71.212c0,13.872,4.66,27.327,13.474,38.913c0.826,1.086,1.219,2.44,1.102,3.8
		c-1.331,15.419-3.921,27.744-7.734,36.864c10.303-3.245,24.552-8.385,35.643-14.882c1.477-0.865,3.273-0.992,4.857-0.345
		c11.127,4.55,23.046,6.856,35.428,6.856c45.639,0,82.769-31.943,82.769-71.207C318.769,41.936,281.639,9.99,236,9.99z"/>
	<path d="M198.5,156.134c-1.787,0-3.539-0.87-4.594-2.474c-1.669-2.535-0.966-5.942,1.568-7.611
		c7.105-4.678,15.449-10.343,17.53-11.995c1.694-2.124,4.742-2.715,7.131-1.272c1.615,0.975,2.631,2.735,2.669,4.622
		c0.061,3.139-1.928,4.567-5.225,6.931c-1.599,1.147-3.815,2.682-6.587,4.561c-4.682,3.175-9.427,6.3-9.474,6.331
		C200.586,155.841,199.538,156.134,198.5,156.134z"/>
	<path d="M263.584,76.189c-0.527,0-1.063-0.076-1.594-0.237c-2.905-0.879-4.547-3.946-3.668-6.851
		c3.347-11.062,2.611-12.093-0.486-16.434l-0.286-0.401c-0.901-1.259-2.965-2.863-4.624-4.151c-0.492-0.381-0.968-0.752-1.413-1.108
		c-10.57-8.458-12.708-10.1-13.091-10.387c-1.708-1.164-2.683-3.248-2.331-5.424c0.487-2.996,3.314-5.029,6.305-4.543
		c1.44,0.234,1.925,0.614,4.254,2.44c2.271,1.781,6.218,4.922,11.731,9.334c0.406,0.325,0.838,0.661,1.285,1.007
		c2.339,1.817,4.99,3.876,6.829,6.447l0.285,0.4c5.06,7.09,6.549,11.168,2.06,26.001C268.123,74.658,265.943,76.189,263.584,76.189z
		"/>
	<path d="M241.516,92.737c-3.035,0-5.495-2.46-5.495-5.495V32.078c0-3.035,2.46-5.495,5.495-5.495c3.035,0,5.495,2.46,5.495,5.495
		v55.165C247.011,90.277,244.551,92.737,241.516,92.737z"/>
	<path d="M224.967,125.836c-12.155,0-22.044-9.889-22.044-22.044s9.889-22.044,22.044-22.044h16.55c3.035,0,5.495,2.46,5.495,5.495
		v16.549C247.011,115.947,237.121,125.836,224.967,125.836z M224.967,92.737c-6.096,0-11.055,4.959-11.055,11.055
		s4.959,11.055,11.055,11.055c6.096,0,11.055-4.959,11.055-11.055V92.737H224.967z"/>
</g>
<g>
</g>
<g>
</g>
<g>
</g>
<g>
</g>
<g>
</g>
<g>
</g>
<g>
</g>
<g>
</g>
<g>
</g>
<g>
</g>
<g>
</g>
<g>
</g>
<g>
</g>
<g>
</g>
<g>
</g>
</svg>
