<svg xmlns="http://www.w3.org/2000/svg" width="335.528" height="332.109" viewBox="0 0 335.528 332.109">
  <g id="drink" transform="translate(128.999 728.501)">
    <path id="Path_546" data-name="Path 546" d="M204.293,299.077a110.766,110.766,0,0,0-3.366,26.8,212.083,212.083,0,0,0,1.508,22.335l-73.653-17.556L55.137,313.092c10.337-15.994,16.1-26.162,20.51-44.693l32.728-137.251a17.838,17.838,0,0,0,17.353,21.977,17.847,17.847,0,0,1,17.84,17.84V193.4a14.328,14.328,0,0,0,13.593,14.44,14.109,14.109,0,0,0,14.63-14.1v-3.6a12.76,12.76,0,0,1,25.519,0v38.1A21.3,21.3,0,0,0,216.138,249.4Zm0,0" transform="translate(-148.004 -774.031)" fill="#f4c734"/>
    <path id="Path_547" data-name="Path 547" d="M191.767,465.907l-153.9-36.693a11.178,11.178,0,0,1,5.186-21.746l153.9,36.7a11.177,11.177,0,1,1-5.184,21.744Zm0,0" transform="translate(-139.092 -869.164)" fill="#f4c734"/>
    <path id="Path_548" data-name="Path 548" d="M389.73,119.215a111.2,111.2,0,0,1-14.266,52.808L364.236,191.79,344.679,180.2a109.591,109.591,0,0,1-26.717-22.245V128.385a12.435,12.435,0,0,0-5.263-10.152c-.282-.2-.568-.387-.863-.558a12.388,12.388,0,0,0-2.9-1.231c-.172-.051-.34-.1-.517-.138l-14.059-3.348L281.621,65.017l45.694-12.136,45.7-12.147,13.05,49.111A109.432,109.432,0,0,1,389.73,119.215Zm0,0" transform="translate(-226.066 -742.868)" fill="#dff6fc"/>
    <path id="Path_549" data-name="Path 549" d="M412.315,337.964v0C421.887,373.984,387.4,395.5,387.4,395.5l37.553-9.981,37.551-9.978S421.892,373.981,412.315,337.964Zm0,0" transform="translate(-262.526 -845.313)" fill="#dff6fc"/>
    <path id="Path_550" data-name="Path 550" d="M406.717,160.492A111.2,111.2,0,0,1,392.451,213.3l-11.228,19.767-19.557-11.589a109.591,109.591,0,0,1-26.717-22.245V169.662a12.409,12.409,0,0,0-4.042-9.169Zm0,0" transform="translate(-243.053 -784.145)" fill="#ff2b3d"/>
    <path id="Path_551" data-name="Path 551" d="M171.306,121.756l-20.231-4.823a12.416,12.416,0,0,0-14.96,9.2,17.837,17.837,0,0,0,17.351,21.974,17.839,17.839,0,0,1,17.84,17.837v22.44a14.334,14.334,0,0,0,13.6,14.443,14.117,14.117,0,0,0,14.63-14.1v-3.594a12.76,12.76,0,1,1,25.519,0v38.1a21.293,21.293,0,0,0,42.586,0v-68.7a12.42,12.42,0,0,0-9.538-12.08Zm0,0" transform="translate(-175.744 -769.014)" fill="#f9f2cc"/>
    <path id="Path_552" data-name="Path 552" d="M335.491,268.938a6.568,6.568,0,0,0-6.238-5.842,61.164,61.164,0,0,1-19.55-4.912c-12.894-5.668-21.155-15-24.56-27.739a0,0,0,0,0,0,0l-10.946-41.2,9.9-17.44A118.493,118.493,0,0,0,299.22,115.9v-.061a115.942,115.942,0,0,0-3.883-31.126L282.289,35.6a6.556,6.556,0,0,0-8.018-4.651l-91.4,24.283a6.556,6.556,0,0,0-4.651,8.018l9.922,37.331-82.29-19.619A18.971,18.971,0,0,0,83.017,94.945a.544.544,0,0,1-.02.069L77.35,118.706,52.9,112.877a33.487,33.487,0,0,0-40.293,24.78L.917,186.7A33.486,33.486,0,0,0,25.694,227l24.444,5.829c-3.8,15.692-8.53,24.841-17.041,38.255a17.722,17.722,0,0,0-20.021,13.606A17.8,17.8,0,0,0,26.26,305.844l153.9,36.693a17.729,17.729,0,0,0,9.326-34.19c-.63-6.438-1-11.806-1-17.082a103.726,103.726,0,0,1,3.187-25.276v0L202.31,221.35a27.882,27.882,0,0,0,25.141-27.713V170.273a116.151,116.151,0,0,0,16.824,12.121l17.254,10.222,10.931,41.14h0c3.392,12.769.858,24.992-7.534,36.33a61.2,61.2,0,0,1-14.517,13.962,6.553,6.553,0,0,0,5.153,11.893l75.1-19.959A6.553,6.553,0,0,0,335.491,268.938ZM192.572,66.221,271.3,45.3,282.67,88.082a102.7,102.7,0,0,1,3.307,21.132H219.1a19.183,19.183,0,0,0-6.218-2.734l-10.252-2.445ZM13.665,189.743l11.7-49.047a20.337,20.337,0,0,1,24.5-15.067l24.444,5.829L53.179,220.075l-24.444-5.829A20.364,20.364,0,0,1,13.665,189.743ZM188.781,326.31a4.626,4.626,0,0,1-5.583,3.476L29.3,293.093a4.641,4.641,0,0,1-3.438-5.517,4.631,4.631,0,0,1,4.5-3.607,4.723,4.723,0,0,1,1.083.128l6.372,1.521,70.448,16.8,62.346,14.86,14.735,3.515A4.636,4.636,0,0,1,188.781,326.31Zm-9.863-63.365a117.669,117.669,0,0,0-3.545,28.317c0,4.418.243,8.924.655,13.834l-.3-.072L46.593,274.234c7.349-11.914,12.462-22.276,16.429-38.928l1.372-5.752c.005-.02.013-.044.018-.064s.005-.038.01-.059L88.57,128.157c0-.013.008-.023.01-.036a.2.2,0,0,0,.008-.038L90.73,119.1a24.2,24.2,0,0,0,8.361,4.749,24.6,24.6,0,0,0,4.482,1.014c1.464.189,2.936.118,4.4.279a11.3,11.3,0,0,1,10.042,11.212v22.437a20.766,20.766,0,0,0,19.921,20.994,20.668,20.668,0,0,0,21.413-20.656c0-2.23-.325-4.72.855-6.722a6.265,6.265,0,0,1,9.95-1.034c2.109,2.324,1.605,5.778,1.605,8.678V192.7c0,1.206.02,2.406.133,3.607a9.137,9.137,0,0,0,.438,2.929A27.857,27.857,0,0,0,189.275,219.5Zm35.424-69.309A14.754,14.754,0,0,1,199.6,208.374a14.906,14.906,0,0,1-14.735-14.612c-.033-1.979-.005-3.963-.005-5.944V161.487a56.825,56.825,0,0,0-.259-9.1,19.324,19.324,0,0,0-16.967-16.053,20.3,20.3,0,0,0-2.086-.113,19.318,19.318,0,0,0-19.317,19.309v3.6a7.507,7.507,0,0,1-2.314,5.445,7.616,7.616,0,0,1-1.2.942,7.457,7.457,0,0,1-3.446,1.144,7.326,7.326,0,0,1-.888.02,7.794,7.794,0,0,1-7.273-7.89V136.352a24.391,24.391,0,0,0-23.093-24.357,15.233,15.233,0,0,1-6.346-1.236,11.359,11.359,0,0,1-4.8-4.562c-1.984-3.517-2.4-9.377,1.5-11.775a5.829,5.829,0,0,1,4.431-.709l20.231,4.823,72.688,17.33.046.015,14.061,3.348a5.932,5.932,0,0,1,4.505,5.706v68.7Zm13.112-41.629V124.934a18.674,18.674,0,0,0-.184-2.616h58.5a106.281,106.281,0,0,1-8.6,34.1,98.348,98.348,0,0,1-4.472,8.921L264.769,179.3l-13.813-8.186a102.759,102.759,0,0,1-23.5-19.107ZM276.176,276.9a58.286,58.286,0,0,0,9.287-19.737,58.214,58.214,0,0,0,17.858,12.52Zm0,0" transform="translate(-129 -739.42)"/>
    <path id="Path_553" data-name="Path 553" d="M188.509,316.1a6.555,6.555,0,0,0-7.9,4.841l-8.33,34.651a6.554,6.554,0,1,0,12.746,3.064L193.35,324A6.556,6.556,0,0,0,188.509,316.1Zm0,0" transform="translate(-188.314 -837.715)"/>
    <path id="Path_554" data-name="Path 554" d="M148.408,238.374a6.556,6.556,0,0,0-7.895,4.854l-13.859,58.127a142.222,142.222,0,0,1-5.962,18.91,6.553,6.553,0,1,0,12.06,5.133,153.982,153.982,0,0,0,6.656-21.017l13.857-58.112A6.556,6.556,0,0,0,148.408,238.374Zm0,0" transform="translate(-170.418 -810.927)"/>
    <path id="Path_555" data-name="Path 555" d="M241.819,304.363a6.557,6.557,0,0,0-7.895,4.854l-7.211,30.248a153.988,153.988,0,0,0-3.545,21.772,6.553,6.553,0,0,0,6.108,6.971c.148.01.292.015.438.015a6.555,6.555,0,0,0,6.533-6.123,142.58,142.58,0,0,1,3.215-19.581l7.214-30.26A6.552,6.552,0,0,0,241.819,304.363Zm0,0" transform="translate(-205.914 -833.671)"/>
    <path id="Path_556" data-name="Path 556" d="M206.511,281.279c-2.26-5.517-10.408-5.166-12.27.451-1.92,5.793,4.795,10.879,9.858,7.506A6.605,6.605,0,0,0,206.511,281.279Zm0,0" transform="translate(-195.833 -824.414)"/>
    <path id="Path_557" data-name="Path 557" d="M191.411,26.882,219.9,45.162a6.553,6.553,0,1,0,7.078-11.031L198.489,15.849a6.554,6.554,0,0,0-7.078,11.033Zm0,0" transform="translate(-193.934 -733.933)"/>
    <path id="Path_558" data-name="Path 558" d="M260.989,26.633a6.553,6.553,0,1,0,12.538-3.817L268.149,5.146a6.554,6.554,0,1,0-12.541,3.817Zm0,0" transform="translate(-217.002 -729)"/>
    <path id="Path_559" data-name="Path 559" d="M226.536,78.459l-17.21,2.063a6.554,6.554,0,0,0,.771,13.061,6.3,6.3,0,0,0,.788-.049L228.1,91.474a6.554,6.554,0,1,0-1.562-13.014Zm0,0" transform="translate(-199.158 -755.854)"/>
  </g>
</svg>
