<svg id="Capa_1" enable-background="new 0 0 512 512" height="512" viewBox="0 0 512 512" width="512" xmlns="http://www.w3.org/2000/svg"><g><g><g><g><g><g><g><circle cx="256" cy="256" fill="#c7eefe" r="256"/></g></g></g></g></g></g><path d="m512 256c0-15.835-1.438-31.334-4.19-46.374l-84.714-84.714-333.993 251.704 133.183 133.184c11.032 1.451 22.285 2.2 33.714 2.2 141.385 0 256-114.615 256-256z" fill="#9fdafe"/><g><path d="m409.59 382.385h-307.18c-10.077 0-18.245-8.169-18.245-18.245v-226.96c0-10.077 8.169-18.245 18.245-18.245h307.18c10.077 0 18.245 8.169 18.245 18.245v226.96c.001 10.077-8.168 18.245-18.245 18.245z" fill="#78d464"/></g><g><path d="m409.59 118.934h-159.59v263.451h159.59c10.077 0 18.245-8.169 18.245-18.245v-226.96c.001-10.077-8.168-18.246-18.245-18.246z" fill="#6cbd5a"/></g><g><g><path d="m116.114 245.32v-92.112h67.53v20.715h-43.777v14.362h42.811v20.715h-42.811v15.605h43.777v20.715z" fill="#fff"/></g><g><path d="m255.866 245.32-20.024-30.934-20.024 30.934h-28.173l32.177-47.23-30.106-44.882h28.034l18.091 28.863 17.815-28.863h28.172l-29.967 44.744 32.039 47.368z" fill="#fff"/></g><g><path d="m290.8 245.32v-92.112h23.753v92.112z" fill="#e9ecf4"/></g><g><path d="m351.699 245.32v-71.397h-25.825v-20.715h75.264v20.715h-25.686v71.397z" fill="#e9ecf4"/></g></g><g><path d="m410.257 314.685-70.103-46.86v26.607h-224.04v40.505h224.04v26.607z" fill="#fff"/></g><g><path d="m410.257 314.685-70.103-46.86v26.607h-90.154v40.505h90.154v26.607z" fill="#e9ecf4"/></g></g></svg>