<?xml version="1.0" encoding="iso-8859-1"?>
<!-- Generator: Adobe Illustrator 19.0.0, SVG Export Plug-In . SVG Version: 6.00 Build 0)  -->
<svg version="1.1" id="Capa_1" xmlns="http://www.w3.org/2000/svg" xmlns:xlink="http://www.w3.org/1999/xlink" x="0px" y="0px"
	 viewBox="0 0 512 512" style="enable-background:new 0 0 512 512;" xml:space="preserve">
<g>
	<path style="fill:#62BEFF;" d="M508.757,173.653L361.045,324.522c-1.041-3.422-1.007-7.091,0.085-10.496v-0.085
		c3.055-9.566-2.219-19.797-11.785-22.861c-1.766-0.563-3.601-0.853-5.453-0.862c-0.538-0.017-1.084,0.017-1.621,0.085
		c-0.538,0.068-1.084,0.102-1.621,0.085c-9.045-0.043-16.691-6.733-17.92-15.701c-0.589-4.454-2.807-8.525-6.229-11.435
		l24.832-4.267L510.379,89.941L508.757,173.653z"/>
	<path style="fill:#62BEFF;" d="M295.509,261.546c-8.286,4.949-18.995,2.5-24.32-5.547h-0.085c-1.596-2.423-3.772-4.412-6.315-5.803
		L512,2.986l-1.621,86.955L341.333,258.986l-24.832,4.267c-3.311-2.748-7.475-4.258-11.776-4.267
		C301.483,258.995,298.3,259.882,295.509,261.546z"/>
	<path style="fill:#62BEFF;" d="M225.792,264.106c-3.277-0.009-6.485-0.896-9.301-2.56c-2.79-1.664-5.973-2.551-9.216-2.56
		c-6.562,0.009-12.612,3.524-15.872,9.216l-20.736-9.216L0,88.319V2.986l247.211,247.211c-2.569,1.365-4.736,3.362-6.315,5.803
		C237.525,261.051,231.868,264.089,225.792,264.106z"/>
	<path style="fill:#62BEFF;" d="M189.269,274.687c-1.229,8.969-8.875,15.659-17.92,15.701c-0.538,0.017-1.084-0.017-1.621-0.085
		c-9.984-0.87-18.79,6.519-19.661,16.504c-0.213,2.406,0.06,4.83,0.802,7.134v0.085c1.092,3.439,1.126,7.125,0.085,10.581L0,173.653
		V88.319l170.667,170.667l20.736,9.216C190.285,270.207,189.568,272.409,189.269,274.687z"/>
</g>
<path style="fill:#E57A1D;" d="M372.053,336.469c9.387,3.618,14.054,14.157,10.436,23.543c-0.853,2.219-2.142,4.258-3.78,5.982
	c-6.596,6.997-6.596,17.92,0,24.917v0.085c6.903,7.262,6.613,18.748-0.649,25.651c-1.732,1.647-3.772,2.935-6.007,3.789h-0.085
	c-8.977,3.447-13.722,13.269-10.837,22.443v0.085c3.072,9.54-2.185,19.763-11.725,22.835c-2.304,0.742-4.727,1.015-7.134,0.802
	c-0.538-0.068-1.084-0.102-1.621-0.085c-9.045,0.043-16.691,6.733-17.92,15.701c-1.323,9.907-10.428,16.87-20.335,15.539
	c-2.432-0.324-4.779-1.143-6.886-2.398c-2.816-1.664-6.025-2.551-9.301-2.56c-6.076,0.017-11.733,3.055-15.104,8.107
	c-5.53,8.346-16.785,10.615-25.122,5.086c-2.014-1.34-3.746-3.063-5.086-5.086h-0.085c-5.325-8.047-16.034-10.496-24.32-5.547
	c-8.585,5.129-19.695,2.321-24.823-6.255c-1.263-2.108-2.074-4.454-2.398-6.886c-1.229-8.969-8.875-15.659-17.92-15.701
	c-0.538-0.017-1.084,0.017-1.621,0.085c-0.538,0.068-1.084,0.102-1.621,0.085c-10.044-0.043-18.15-8.226-18.099-18.27
	c0.009-1.852,0.299-3.695,0.862-5.453v-0.085c2.884-9.173-1.86-18.995-10.837-22.443h-0.085
	c-9.387-3.618-14.054-14.157-10.436-23.543c0.853-2.219,2.142-4.258,3.78-5.982c6.596-6.997,6.596-17.92,0-24.917v-0.085
	c-6.903-7.262-6.613-18.748,0.649-25.651c1.732-1.647,3.772-2.935,6.007-3.789h0.085c8.96-3.456,13.696-13.278,10.837-22.443v-0.085
	c-3.072-9.54,2.185-19.763,11.725-22.835c2.304-0.742,4.727-1.015,7.134-0.802c0.538,0.068,1.084,0.102,1.621,0.085
	c9.045-0.043,16.691-6.733,17.92-15.701c1.323-9.907,10.428-16.87,20.335-15.539c2.432,0.324,4.779,1.143,6.886,2.398
	c2.816,1.664,6.025,2.551,9.301,2.56c6.076-0.017,11.733-3.055,15.104-8.107c1.579-2.441,3.746-4.437,6.315-5.803
	c5.461-3.072,12.117-3.072,17.579,0c2.543,1.391,4.719,3.379,6.315,5.803h0.085c5.325,8.047,16.034,10.496,24.32,5.547
	c2.79-1.664,5.973-2.551,9.216-2.56c4.301,0.009,8.465,1.519,11.776,4.267c3.422,2.91,5.641,6.98,6.229,11.435
	c1.229,8.969,8.875,15.659,17.92,15.701c0.538,0.017,1.084-0.017,1.621-0.085c0.538-0.068,1.084-0.102,1.621-0.085
	c10.044,0.043,18.15,8.226,18.099,18.27c-0.009,1.852-0.299,3.695-0.862,5.453v0.085c-1.092,3.405-1.126,7.074-0.085,10.496
	c1.536,5.495,5.589,9.933,10.923,11.947H372.053z M341.333,378.453c0-47.13-38.204-85.333-85.333-85.333
	s-85.333,38.204-85.333,85.333S208.87,463.786,256,463.786S341.333,425.582,341.333,378.453z"/>
<circle style="fill:#FFCB5A;" cx="256" cy="378.453" r="85.333"/>
<g>
	<polygon style="fill:#1042A1;" points="347.366,265.019 335.3,252.953 510.609,77.644 510.379,102.007 	"/>
	<polygon style="fill:#1042A1;" points="164.634,265.019 0,100.386 0,76.253 176.7,252.953 	"/>
</g>
<g>
</g>
<g>
</g>
<g>
</g>
<g>
</g>
<g>
</g>
<g>
</g>
<g>
</g>
<g>
</g>
<g>
</g>
<g>
</g>
<g>
</g>
<g>
</g>
<g>
</g>
<g>
</g>
<g>
</g>
</svg>
