<svg xmlns="http://www.w3.org/2000/svg" width="1014" height="425" viewBox="0 0 1014 425">
  <g id="Group_117" data-name="Group 117" transform="translate(-702 -7697)">
    <text id="Professional_Culinary_Trainings_Food_Allergens_" data-name="Professional Culinary Trainings
Food Allergens   " transform="translate(1347 7902)" fill="#fff" font-size="25" font-family="HelveticaNeue-Bold, Helvetica Neue" font-weight="700"><tspan x="0" y="0">Professional Culinary Trainings</tspan><tspan x="0" y="25" xml:space="preserve">Food Allergens   </tspan></text>
    <text id="_Food_Handler_Certificates_National_Accredited_Trainer_in_Food_Safety_" data-name="               Food Handler Certificates
National Accredited Trainer in Food Safety*" transform="translate(925 7721)" fill="#fff" font-size="25" font-family="HelveticaNeue-Bold, Helvetica Neue" font-weight="700"><tspan x="0" y="0" xml:space="preserve">               Food Handler Certificates</tspan><tspan x="0" y="25">National Accredited Trainer in Food Safety*</tspan></text>
    <text id="_Smart_Serve_Beer_Wine_appreciation_" data-name="                      Smart Serve 
Beer &amp; Wine appreciation   " transform="translate(770 8005)" fill="#fff" font-size="25" font-family="HelveticaNeue-Bold, Helvetica Neue" font-weight="700"><tspan x="0" y="0" xml:space="preserve">                      Smart Serve </tspan><tspan x="0" y="25" xml:space="preserve">Beer &amp; Wine appreciation   </tspan></text>
    <text id="Vegan_Vegetarian_Cooking_Schools" data-name="Vegan &amp; Vegetarian Cooking Schools" transform="translate(997 8087)" fill="#fff" font-size="25" font-family="HelveticaNeue-Bold, Helvetica Neue" font-weight="700"><tspan x="0" y="0">Vegan &amp; Vegetarian Cooking Schools</tspan></text>
    <text id="First_Aid_CPR_WHMIS_" data-name="First Aid &amp; CPR
WHMIS " transform="translate(1316 8005)" fill="#fff" font-size="25" font-family="HelveticaNeue-Bold, Helvetica Neue" font-weight="700"><tspan x="0" y="0">First Aid &amp; CPR</tspan><tspan x="0" y="25">WHMIS </tspan></text>
    <text id="_10_years_experienced_Chef_" data-name="10 years experienced Chef " transform="translate(751 7799)" fill="#fff" font-size="25" font-family="HelveticaNeue-Bold, Helvetica Neue" font-weight="700"><tspan x="0" y="0">10 years experienced Chef </tspan></text>
    <text id="_Infection_Prevention_and_Control_for_Covid-19_WHO_" data-name="     Infection Prevention and 
Control for Covid-19 (WHO)" transform="translate(702 7902)" fill="#fff" font-size="25" font-family="HelveticaNeue-Bold, Helvetica Neue" font-weight="700"><tspan x="0" y="0" xml:space="preserve">     Infection Prevention and </tspan><tspan x="0" y="25">Control for Covid-19 (WHO)</tspan></text>
    <path id="Path_315" data-name="Path 315" d="M0,0" transform="translate(1244.5 7949.5)" fill="none" stroke="#383535" stroke-width="4"/>
    <g id="Path_316" data-name="Path 316" transform="translate(1115 7837)" fill="#fcfcfc">
      <path d="M 67.5 132.5 C 58.72396087646484 132.5 50.21173858642578 130.7817535400391 42.1998405456543 127.3929977416992 C 38.34886169433594 125.7641830444336 34.6343994140625 123.7480010986328 31.15962028503418 121.4004974365234 C 27.71722030639648 119.0748596191406 24.48006057739258 116.403938293457 21.53805923461914 113.4619369506836 C 18.59605979919434 110.5199432373047 15.92514038085938 107.2827835083008 13.59949970245361 103.8403778076172 C 11.2519998550415 100.3656005859375 9.235819816589355 96.65113830566406 7.60699987411499 92.80016326904297 C 4.218239784240723 84.78826141357422 2.5 76.27603912353516 2.5 67.5 C 2.5 58.72396087646484 4.218239784240723 50.21173858642578 7.60699987411499 42.1998405456543 C 9.235819816589355 38.34886169433594 11.2519998550415 34.6343994140625 13.59949970245361 31.15962028503418 C 15.92514038085938 27.71722030639648 18.59605979919434 24.48006057739258 21.53805923461914 21.53805923461914 C 24.48006057739258 18.59605979919434 27.71722030639648 15.92514038085938 31.15962028503418 13.59949970245361 C 34.6343994140625 11.2519998550415 38.34886169433594 9.235819816589355 42.1998405456543 7.60699987411499 C 50.21173858642578 4.218239784240723 58.72396087646484 2.5 67.5 2.5 C 76.27603912353516 2.5 84.78826141357422 4.218239784240723 92.80016326904297 7.60699987411499 C 96.65113830566406 9.235819816589355 100.3656005859375 11.2519998550415 103.8403778076172 13.59949970245361 C 107.2827835083008 15.92514038085938 110.5199432373047 18.59605979919434 113.4619369506836 21.53805923461914 C 116.403938293457 24.48006057739258 119.0748596191406 27.71722030639648 121.4004974365234 31.15962028503418 C 123.7480010986328 34.6343994140625 125.7641830444336 38.34886169433594 127.3929977416992 42.1998405456543 C 130.7817535400391 50.21173858642578 132.5 58.72396087646484 132.5 67.5 C 132.5 76.27603912353516 130.7817535400391 84.78826141357422 127.3929977416992 92.80016326904297 C 125.7641830444336 96.65113830566406 123.7480010986328 100.3656005859375 121.4004974365234 103.8403778076172 C 119.0748596191406 107.2827835083008 116.403938293457 110.5199432373047 113.4619369506836 113.4619369506836 C 110.5199432373047 116.403938293457 107.2827835083008 119.0748596191406 103.8403778076172 121.4004974365234 C 100.3656005859375 123.7480010986328 96.65113830566406 125.7641830444336 92.80016326904297 127.3929977416992 C 84.78826141357422 130.7817535400391 76.27603912353516 132.5 67.5 132.5 Z" stroke="none"/>
      <path d="M 67.5 5 C 59.06034851074219 5 50.87580108642578 6.651809692382812 43.17371368408203 9.909500122070312 C 39.47141265869141 11.47545623779297 35.90015411376953 13.41390991210938 32.55915069580078 15.67106628417969 C 29.24858856201172 17.90763092041016 26.13532257080078 20.47632598876953 23.30582427978516 23.30582427978516 C 20.47632598876953 26.13532257080078 17.90763092041016 29.24858856201172 15.67106628417969 32.55915069580078 C 13.41390991210938 35.90015411376953 11.47545623779297 39.47141265869141 9.909500122070312 43.17371368408203 C 6.651809692382812 50.87580108642578 5 59.06034851074219 5 67.5 C 5 75.93965148925781 6.651809692382812 84.12419128417969 9.909500122070312 91.82627868652344 C 11.47545623779297 95.52858734130859 13.41390991210938 99.099853515625 15.67106628417969 102.4408493041992 C 17.90763092041016 105.7514114379883 20.47632598876953 108.8646697998047 23.30582427978516 111.6941757202148 C 26.13532257080078 114.5236740112305 29.24858856201172 117.0923690795898 32.55915069580078 119.3289337158203 C 35.90015411376953 121.5860900878906 39.47141265869141 123.524543762207 43.17371368408203 125.0904998779297 C 50.87580108642578 128.3481903076172 59.06034851074219 130 67.5 130 C 75.93965148925781 130 84.12419128417969 128.3481903076172 91.82627868652344 125.0904998779297 C 95.52858734130859 123.524543762207 99.099853515625 121.5860900878906 102.4408493041992 119.3289337158203 C 105.7514114379883 117.0923690795898 108.8646697998047 114.5236740112305 111.6941757202148 111.6941757202148 C 114.5236740112305 108.8646697998047 117.0923690795898 105.7514114379883 119.3289337158203 102.4408493041992 C 121.5860900878906 99.099853515625 123.524543762207 95.52858734130859 125.0904998779297 91.82627868652344 C 128.3481903076172 84.12419128417969 130 75.93965148925781 130 67.5 C 130 59.06034851074219 128.3481903076172 50.87580108642578 125.0904998779297 43.17371368408203 C 123.524543762207 39.47141265869141 121.5860900878906 35.90015411376953 119.3289337158203 32.55915069580078 C 117.0923690795898 29.24858856201172 114.5236740112305 26.13532257080078 111.6941757202148 23.30582427978516 C 108.8646697998047 20.47632598876953 105.7514114379883 17.90763092041016 102.4408493041992 15.67106628417969 C 99.099853515625 13.41390991210938 95.52858734130859 11.47545623779297 91.82627868652344 9.909500122070312 C 84.12419128417969 6.651809692382812 75.93965148925781 5 67.5 5 M 67.5 0 C 104.7792205810547 0 135 30.22077941894531 135 67.5 C 135 104.7792205810547 104.7792205810547 135 67.5 135 C 30.22077941894531 135 0 104.7792205810547 0 67.5 C 0 30.22077941894531 30.22077941894531 0 67.5 0 Z" stroke="none" fill="#383535"/>
    </g>
    <line id="Line_13" data-name="Line 13" y1="67" transform="translate(1181.5 7770.5)" fill="none" stroke="#383535" stroke-width="5"/>
    <line id="Line_14" data-name="Line 14" x1="49" y2="49" transform="translate(1227.5 7809.5)" fill="none" stroke="#383535" stroke-width="5"/>
    <line id="Line_15" data-name="Line 15" x2="70" transform="translate(1247.5 7904.5)" fill="none" stroke="#383535" stroke-width="5"/>
    <line id="Line_16" data-name="Line 16" x2="50" y2="50" transform="translate(1228.5 7951.5)" fill="none" stroke="#383535" stroke-width="5"/>
    <line id="Line_17" data-name="Line 17" y2="74" transform="translate(1181.5 7970.5)" fill="none" stroke="#383535" stroke-width="5"/>
    <line id="Line_18" data-name="Line 18" x1="50" y2="50" transform="translate(1084.5 7951.5)" fill="none" stroke="#383535" stroke-width="5"/>
    <line id="Line_19" data-name="Line 19" x1="70" transform="translate(1045.5 7904.5)" fill="none" stroke="#383535" stroke-width="5"/>
    <line id="Line_20" data-name="Line 20" x1="48" y1="48" transform="translate(1086.5 7809.5)" fill="none" stroke="#383535" stroke-width="5"/>
    <text id="Our_Staff" data-name="Our Staff" transform="translate(1139 7913)" fill="#24b273" font-size="20" font-family="HelveticaNeue-Bold, Helvetica Neue" font-weight="700"><tspan x="0" y="0">Our Staff</tspan></text>
    <circle id="Ellipse_42" data-name="Ellipse 42" cx="4" cy="4" r="4" transform="translate(1014 7709)" fill="#fbfea3"/>
    <circle id="Ellipse_43" data-name="Ellipse 43" cx="4" cy="4" r="4" transform="translate(913 7735)" fill="#fbfea3"/>
    <circle id="Ellipse_44" data-name="Ellipse 44" cx="4" cy="4" r="4" transform="translate(739 7786)" fill="#fbfea3"/>
    <circle id="Ellipse_45" data-name="Ellipse 45" cx="4" cy="4" r="4" transform="translate(722 7890)" fill="#fbfea3"/>
    <circle id="Ellipse_46" data-name="Ellipse 46" cx="4" cy="4" r="4" transform="translate(909 7993)" fill="#fbfea3"/>
    <path id="Path_592" data-name="Path 592" d="M4,0A4,4,0,1,1,0,4,4,4,0,0,1,4,0Z" transform="translate(982 8074)" fill="#fbfea3"/>
    <path id="Path_591" data-name="Path 591" d="M4,0A4,4,0,1,1,0,4,4,4,0,0,1,4,0Z" transform="translate(1300 7994)" fill="#fbfea3"/>
    <circle id="Ellipse_49" data-name="Ellipse 49" cx="4" cy="4" r="4" transform="translate(1300 8017)" fill="#fbfea3"/>
    <path id="Path_593" data-name="Path 593" d="M4,0A4,4,0,1,1,0,4,4,4,0,0,1,4,0Z" transform="translate(757 8018)" fill="#fbfea3"/>
    <circle id="Ellipse_51" data-name="Ellipse 51" cx="4" cy="4" r="4" transform="translate(1333 7889)" fill="#fbfea3"/>
    <circle id="Ellipse_52" data-name="Ellipse 52" cx="4" cy="4" r="4" transform="translate(1333 7915)" fill="#fbfea3"/>
    <g id="Group_121" data-name="Group 121" transform="translate(4)">
      <text id="Food_Delivery_Safety" data-name="Food Delivery Safety" transform="translate(1293 7805)" fill="#fff" font-size="25" font-family="HelveticaNeue-Bold, Helvetica Neue" font-weight="700"><tspan x="0" y="0">Food Delivery Safety</tspan></text>
      <circle id="Ellipse_53" data-name="Ellipse 53" cx="4" cy="4" r="4" transform="translate(1278 7792)" fill="#fbfea3"/>
    </g>
    <text id="Nutrition_and_Wellbeing" data-name="Nutrition and Wellbeing" transform="translate(997 8117)" fill="#fff" font-size="25" font-family="HelveticaNeue-Bold, Helvetica Neue" font-weight="700"><tspan x="0" y="0">Nutrition and Wellbeing</tspan></text>
    <path id="Path_672" data-name="Path 672" d="M4,0A4,4,0,1,1,0,4,4,4,0,0,1,4,0Z" transform="translate(982 8104)" fill="#fbfea3"/>
  </g>
</svg>
